<svg xmlns="http://www.w3.org/2000/svg" xmlns:xlink="http://www.w3.org/1999/xlink" width="308" zoomAndPan="magnify" viewBox="0 0 230.87999 276.749989" height="369" preserveAspectRatio="xMidYMid meet" version="1.0"><defs><g/><clipPath id="id1"><path d="M 28.859375 1 L 201.953125 1 L 201.953125 276.5 L 28.859375 276.5 Z M 28.859375 1 " clip-rule="nonzero"/></clipPath></defs><path fill="rgb(75.289917%, 39.608765%, 88.62915%)" d="M 178.578125 19.046875 C 157.9375 24.019531 136.699219 26.542969 115.453125 26.542969 C 94.207031 26.542969 72.96875 24.019531 52.324219 19.046875 C 51.207031 18.78125 50.238281 18.074219 49.660156 17.113281 C 49.09375 16.183594 48.945312 15.097656 49.222656 14.070312 C 49.773438 11.949219 52.0625 10.601562 54.277344 11.132812 C 94.285156 20.769531 136.621094 20.769531 176.636719 11.132812 C 178.835938 10.613281 181.132812 11.953125 181.691406 14.070312 C 181.957031 15.109375 181.792969 16.195312 181.226562 17.128906 C 180.644531 18.09375 179.699219 18.78125 178.578125 19.046875 " fill-opacity="1" fill-rule="nonzero"/><g clip-path="url(#id1)"><path fill="rgb(75.289917%, 39.608765%, 88.62915%)" d="M 49.835938 39.09375 L 49.835938 29.699219 L 49.820312 29.699219 C 49.820312 29.699219 49.328125 23.621094 51.183594 21.332031 C 52.023438 20.296875 53.1875 19.714844 54.546875 19.664062 C 54.664062 19.65625 58.121094 19.164062 57.957031 3.40625 L 57.941406 1.1875 L 63.523438 1.1875 L 63.539062 3.351562 C 63.613281 10.070312 62.933594 23.738281 55.390625 24.78125 C 55.359375 25.222656 55.359375 28.738281 55.359375 29.511719 L 55.414062 29.511719 L 55.414062 44.148438 L 52.796875 44.308594 C 42.519531 44.933594 34.476562 53.40625 34.476562 63.582031 L 34.476562 237.542969 C 34.476562 258.882812 62.289062 269.414062 122.027344 270.695312 C 154.859375 271.375 177.953125 266.136719 188.933594 255.507812 C 193.976562 250.628906 196.429688 244.75 196.429688 237.542969 L 196.429688 63.582031 C 196.429688 53.40625 188.375 44.933594 178.101562 44.308594 L 175.488281 44.148438 L 175.488281 29.511719 L 175.507812 29.511719 C 175.507812 28.738281 175.507812 25.222656 175.484375 24.78125 C 167.949219 23.738281 167.261719 10.070312 167.332031 3.351562 L 167.351562 1.1875 L 172.941406 1.1875 L 172.917969 3.40625 C 172.757812 19.164062 176.21875 19.65625 176.328125 19.664062 C 177.6875 19.714844 178.851562 20.296875 179.695312 21.332031 C 181.367188 23.394531 181.132812 28.511719 181.0625 29.511719 L 181.070312 29.511719 L 181.070312 39.09375 C 193.003906 41.074219 202.011719 51.371094 202.011719 63.582031 L 202.011719 237.542969 C 202.011719 246.191406 198.929688 253.566406 192.839844 259.460938 C 181.300781 270.625 159.460938 276.273438 127.867188 276.273438 C 125.921875 276.273438 123.933594 276.253906 121.90625 276.214844 C 81.980469 275.359375 28.886719 270.425781 28.886719 237.542969 L 28.886719 63.582031 C 28.886719 51.371094 37.902344 41.074219 49.835938 39.09375 " fill-opacity="1" fill-rule="nonzero"/></g><path fill="rgb(75.289917%, 39.608765%, 88.62915%)" d="M 180.78125 208.136719 L 186.367188 208.136719 L 186.367188 68.992188 C 186.367188 59.015625 178.605469 50.722656 168.703125 50.105469 L 168.355469 55.707031 C 175.324219 56.140625 180.78125 61.976562 180.78125 68.992188 L 180.78125 208.136719 " fill-opacity="1" fill-rule="nonzero"/><path fill="rgb(75.289917%, 39.608765%, 88.62915%)" d="M 53.8125 250.707031 C 53.8125 256.773438 81.414062 261.691406 115.453125 261.691406 C 149.492188 261.691406 177.089844 256.773438 177.089844 250.707031 C 177.089844 244.644531 149.492188 239.726562 115.453125 239.726562 C 81.414062 239.726562 53.8125 244.644531 53.8125 250.707031 " fill-opacity="1" fill-rule="nonzero"/><path fill="rgb(75.289917%, 39.608765%, 88.62915%)" d="M 74.09375 1.875 C 77.226562 3.835938 94.550781 5.324219 115.453125 5.324219 C 136.347656 5.324219 153.679688 3.835938 156.804688 1.875 L 172.835938 1.875 C 171.855469 6.714844 146.550781 10.59375 115.453125 10.59375 C 84.347656 10.59375 59.039062 6.714844 58.0625 1.875 L 74.09375 1.875 " fill-opacity="1" fill-rule="nonzero"/><path fill="rgb(48.239136%, 83.139038%, 98.429871%)" d="M 39.515625 21.371094 C 39.515625 25.535156 42.871094 28.914062 47.019531 28.914062 L 183.882812 28.914062 C 188.027344 28.914062 191.382812 25.535156 191.382812 21.371094 L 191.382812 7.6875 C 191.382812 3.523438 188.027344 0.140625 183.882812 0.140625 L 47.019531 0.140625 C 42.871094 0.140625 39.515625 3.523438 39.515625 7.6875 L 39.515625 21.371094 " fill-opacity="1" fill-rule="nonzero"/><g fill="rgb(48.239136%, 83.139038%, 98.429871%)" fill-opacity="1"><g transform="translate(48.159926, 200.171391)"><g><path d="M 22.546875 -39 C 22.546875 -40.65625 20.769531 -42.40625 17.21875 -44.25 C 13.664062 -46.09375 9.816406 -47.523438 5.671875 -48.546875 L 5.671875 -56.421875 C 10.191406 -57.523438 14.132812 -58.859375 17.5 -60.421875 C 20.863281 -61.992188 22.546875 -63.613281 22.546875 -65.28125 L 22.546875 -100.546875 C 22.546875 -105.054688 22.890625 -108.441406 23.578125 -110.703125 C 24.265625 -112.960938 25.484375 -114.53125 27.234375 -115.40625 C 28.992188 -116.28125 31.578125 -116.71875 34.984375 -116.71875 C 37.941406 -116.71875 40.523438 -116.53125 42.734375 -116.15625 C 44.941406 -115.789062 47.015625 -115.378906 48.953125 -114.921875 C 50.890625 -114.460938 52.132812 -114.140625 52.6875 -113.953125 L 52.6875 -108.5625 L 32.921875 -108.5625 L 32.921875 -65.546875 C 32.921875 -63.429688 32.296875 -61.65625 31.046875 -60.21875 C 29.804688 -58.789062 28.265625 -57.59375 26.421875 -56.625 C 24.578125 -55.664062 21.671875 -54.265625 17.703125 -52.421875 C 22.773438 -50.109375 26.578125 -47.984375 29.109375 -46.046875 C 31.648438 -44.117188 32.921875 -41.722656 32.921875 -38.859375 L 32.921875 4.421875 L 52.6875 4.421875 L 52.6875 9.953125 C 52.039062 10.140625 50.539062 10.507812 48.1875 11.0625 C 45.84375 11.613281 43.585938 12.023438 41.421875 12.296875 C 39.253906 12.578125 37.019531 12.71875 34.71875 12.71875 C 31.394531 12.71875 28.878906 12.253906 27.171875 11.328125 C 25.460938 10.410156 24.265625 8.800781 23.578125 6.5 C 22.890625 4.195312 22.546875 0.832031 22.546875 -3.59375 Z M 22.546875 -39 "/></g></g></g><g fill="rgb(48.239136%, 83.139038%, 98.429871%)" fill-opacity="1"><g transform="translate(117.711463, 200.171391)"><g><path d="M 32.078125 -38.859375 C 32.078125 -41.722656 33.367188 -44.144531 35.953125 -46.125 C 38.535156 -48.101562 42.269531 -50.203125 47.15625 -52.421875 C 43.007812 -54.441406 40.0625 -55.9375 38.3125 -56.90625 C 36.5625 -57.875 35.082031 -59.050781 33.875 -60.4375 C 32.675781 -61.820312 32.078125 -63.523438 32.078125 -65.546875 L 32.078125 -108.5625 L 12.453125 -108.5625 L 12.3125 -113.953125 C 16.550781 -114.972656 19.773438 -115.6875 21.984375 -116.09375 C 24.203125 -116.507812 26.878906 -116.71875 30.015625 -116.71875 C 33.515625 -116.71875 36.140625 -116.28125 37.890625 -115.40625 C 39.640625 -114.53125 40.835938 -112.960938 41.484375 -110.703125 C 42.128906 -108.441406 42.453125 -105.054688 42.453125 -100.546875 L 42.453125 -65.28125 C 42.453125 -63.613281 44.132812 -61.992188 47.5 -60.421875 C 50.863281 -58.859375 54.804688 -57.523438 59.328125 -56.421875 L 59.328125 -48.546875 C 55.273438 -47.523438 51.445312 -46.09375 47.84375 -44.25 C 44.25 -42.40625 42.453125 -40.65625 42.453125 -39 L 42.453125 -3.59375 C 42.453125 0.925781 42.128906 4.3125 41.484375 6.5625 C 40.835938 8.820312 39.660156 10.410156 37.953125 11.328125 C 36.253906 12.253906 33.695312 12.71875 30.28125 12.71875 C 27.332031 12.71875 24.726562 12.53125 22.46875 12.15625 C 20.207031 11.789062 18.109375 11.378906 16.171875 10.921875 C 14.242188 10.460938 12.957031 10.140625 12.3125 9.953125 L 12.453125 4.421875 L 32.078125 4.421875 Z M 32.078125 -38.859375 "/></g></g></g></svg>